<?xml version="1.0" encoding="utf-8"?>
<!-- Generator: Adobe Illustrator 24.0.1, SVG Export Plug-In . SVG Version: 6.00 Build 0)  -->
<svg version="1.1" id="Layer_1" xmlns="http://www.w3.org/2000/svg" xmlns:xlink="http://www.w3.org/1999/xlink" x="0px" y="0px"
	 viewBox="0 0 85.1 122.9" style="enable-background:new 0 0 85.1 122.9;" xml:space="preserve">
<style type="text/css">
	.st0{opacity:0.1;fill:#FFFFFF;}
	.st1{opacity:0.1;}
	.st2{fill:#FFFFFF;}
</style>
<path class="st0" d="M48.6,23.2v93.6l36.5-12.6l0-86.2L48.6,23.2z M53.9,73.6c-0.7,0-1.3-1.9-1.3-4.3c0-2.4,0.6-4.3,1.3-4.3
	c0.7,0,1.3,1.9,1.3,4.3C55.3,71.7,54.7,73.6,53.9,73.6z"/>
<g class="st1">
	<path class="st2" d="M85.1,8.8V0h-5.9C81.7,2.5,83.7,5.4,85.1,8.8z"/>
	<path class="st2" d="M85.1,14.8H36.2C37,9,39.8,3.9,43.8,0h-7.1c-3.8,5.1-6.1,11.5-6.1,18.3v90.3h5.3V18.3c0-0.3,0-0.5,0-0.8h49.1
		V14.8z"/>
</g>
</svg>
