<?xml version="1.0" encoding="utf-8"?>
<!-- Generator: Adobe Illustrator 24.0.1, SVG Export Plug-In . SVG Version: 6.00 Build 0)  -->
<svg version="1.1" id="Layer_1" xmlns="http://www.w3.org/2000/svg" xmlns:xlink="http://www.w3.org/1999/xlink" x="0px" y="0px"
	 viewBox="0 0 85.1 122.9" style="enable-background:new 0 0 85.1 122.9;" xml:space="preserve">
<style type="text/css">
	.st0{opacity:0.1;}
	.st1{fill:#FFFFFF;}
</style>
<g class="st0">
	<path class="st1" d="M76.5,25.2c-1.5,0.8-2,2.7-1.2,4.1c0.8,1.5,2.7,2,4.2,1.2c2.2-1.2,4.1-2.5,5.7-3.8v-9
		C83.3,20.4,80.5,23,76.5,25.2z"/>
	<path class="st1" d="M51.9,5c1.5,0.8,3.3,0.2,4.1-1.3c0.7-1.3,1.5-2.6,2.3-3.7h-7.2c-0.2,0.3-0.3,0.6-0.5,0.8
		C49.8,2.3,50.4,4.2,51.9,5z"/>
	<path class="st1" d="M85.1,0h-1c0.4,0.5,0.7,0.9,1,1.4V0z"/>
	<path class="st1" d="M85.1,33.9c-2.2,1.6-5,2.2-7.8,1.4c-1-0.3-1.9-0.7-2.7-1.2c-1.2-0.6-2.3-1.6-3-2.9c-0.3-0.6-0.5-1.1-0.7-1.8
		c-0.6-1.7-0.7-3.6-0.2-5.4c1.2-4.3,5.2-7.1,9.5-6.8c0.2-0.2,0.4-0.5,0.6-0.7c1.5-1.8,2.3-3.7,2.5-5.5c0.1-0.7,0.1-1.5,0-2.2
		c-13.5-3-27,5.1-30.6,18.5C50,37.9,54,48.5,62.2,54.7L61,58.9c-0.2,0.6,0.2,1.1,0.7,1.3l2.7,0.7l-11.1,41.4l5.8,7.6l7.5-4.1
		l1.2-4.4l-2.8-3.3l4.1-1.9l0.6-2.2l-3-3l0.9-3.2l4.2-1.5l0.8-3l-3.1-2.6l0.9-3.3l4.3-1.7l3.1-11.4l0.8,0.3c0.6,0.1,1.1-0.2,1.3-0.7
		l1.1-4.2c1.4-0.2,2.7-0.5,4.1-0.9V33.9z"/>
	<path class="st1" d="M55.9,54.7C44.3,39.1,44,24.4,58.1,10.6L48,5c-8.1-3.2-23,20.1-17.3,26.3l7.9,11.7L37,46.5
		c-0.5,1,0,1.7,1.1,2.2l1.1,0.3L18.6,89.7l4.2,8.9l8.3-2.5l2.1-4.2l-2-3.8l4.5-1l1-2l-2.4-3.6l1.5-3l4.5-0.6l1.5-2.9l-2.5-3.3
		l1.6-3.1l4.6-0.8l6.3-12l1.1,0.6C54.8,57.7,55.7,56.9,55.9,54.7z"/>
</g>
</svg>
